<svg width="20" height="20" viewBox="0 0 20 20" fill="none" xmlns="http://www.w3.org/2000/svg">
<path d="M13.3734 12.085V7.91499C13.3734 7.74193 13.2967 7.62339 13.1434 7.55936C12.99 7.4952 12.852 7.52457 12.7292 7.64749L10.9038 9.4727C10.7532 9.62339 10.6779 9.79916 10.6779 9.99999C10.6779 10.2008 10.7532 10.3766 10.9038 10.5273L12.7292 12.3525C12.852 12.4754 12.99 12.5048 13.1434 12.4406C13.2967 12.3766 13.3734 12.258 13.3734 12.085ZM4.42315 17.0833C4.00759 17.0833 3.65259 16.9362 3.35815 16.6419C3.06384 16.3474 2.91669 15.9924 2.91669 15.5769V4.42311C2.91669 4.00756 3.06384 3.65256 3.35815 3.35811C3.65259 3.06381 4.00759 2.91666 4.42315 2.91666H15.5769C15.9925 2.91666 16.3475 3.06381 16.6419 3.35811C16.9362 3.65256 17.0834 4.00756 17.0834 4.42311V15.5769C17.0834 15.9924 16.9362 16.3474 16.6419 16.6419C16.3475 16.9362 15.9925 17.0833 15.5769 17.0833H4.42315ZM6.66669 15.8333V4.16666H4.42315C4.35898 4.16666 4.30023 4.19339 4.2469 4.24686C4.19342 4.3002 4.16669 4.35895 4.16669 4.42311V15.5769C4.16669 15.641 4.19342 15.6998 4.2469 15.7531C4.30023 15.8066 4.35898 15.8333 4.42315 15.8333H6.66669ZM7.91669 15.8333H15.5769C15.6411 15.8333 15.6998 15.8066 15.7531 15.7531C15.8066 15.6998 15.8334 15.641 15.8334 15.5769V4.42311C15.8334 4.35895 15.8066 4.3002 15.7531 4.24686C15.6998 4.19339 15.6411 4.16666 15.5769 4.16666H7.91669V15.8333Z" fill="#08138C"/>
</svg>
