<svg width="24" height="24" viewBox="0 0 24 24" fill="none" xmlns="http://www.w3.org/2000/svg">
<path d="M14.6569 17.6731C14.4765 17.6731 14.3085 17.6443 14.153 17.5866C13.9975 17.529 13.8496 17.4301 13.7093 17.2901L6.97879 10.5596C6.77162 10.3522 6.66554 10.0914 6.66055 9.77746C6.65581 9.46371 6.76189 9.19826 6.97879 8.98111C7.19594 8.76421 7.45902 8.65576 7.76802 8.65576C8.07702 8.65576 8.3401 8.76421 8.55725 8.98111L14.6569 15.0812L20.7566 8.98111C20.964 8.77395 21.2247 8.66787 21.5387 8.66288C21.8525 8.65813 22.1179 8.76421 22.335 8.98111C22.552 9.19826 22.6604 9.46134 22.6604 9.77034C22.6604 10.0793 22.552 10.3424 22.335 10.5596L15.6045 17.2901C15.4642 17.4301 15.3164 17.529 15.1609 17.5866C15.0054 17.6443 14.8374 17.6731 14.6569 17.6731Z" fill="#08138C"/>
</svg>
