<svg width="24" height="24" viewBox="0 0 24 24" fill="none" xmlns="http://www.w3.org/2000/svg">
<path d="M1.79828 17.0845C1.79828 16.5692 1.93128 16.1092 2.19728 15.7047C2.46328 15.3002 2.81853 14.9856 3.26303 14.7607C4.21336 14.2959 5.16895 13.9375 6.12978 13.6855C7.09078 13.4337 8.14686 13.3077 9.29803 13.3077C10.4494 13.3077 11.5054 13.4337 12.4663 13.6855C13.4273 13.9375 14.3829 14.2959 15.3333 14.7607C15.7778 14.9856 16.133 15.3002 16.399 15.7047C16.665 16.1092 16.798 16.5692 16.798 17.0845V17.7885C16.798 18.191 16.6503 18.5448 16.3548 18.85C16.0593 19.1552 15.7006 19.3077 15.2788 19.3077H3.31728C2.89561 19.3077 2.53703 19.16 2.24153 18.8645C1.94603 18.5688 1.79828 18.2102 1.79828 17.7885V17.0845ZM20.6828 19.3077H18.4115C18.5372 19.0782 18.633 18.834 18.699 18.575C18.765 18.316 18.798 18.0538 18.798 17.7885V16.9615C18.798 16.3052 18.6374 15.6796 18.316 15.0848C17.9945 14.4901 17.5385 13.9798 16.948 13.554C17.6185 13.654 18.2551 13.8087 18.8578 14.0182C19.4603 14.2279 20.0353 14.4757 20.5828 14.7615C21.0994 15.0372 21.4984 15.3621 21.7798 15.7362C22.0611 16.1102 22.2018 16.5187 22.2018 16.9615V17.7885C22.2018 18.2102 22.054 18.5688 21.7585 18.8645C21.463 19.16 21.1044 19.3077 20.6828 19.3077ZM9.29803 11.6922C8.33553 11.6922 7.51161 11.3496 6.82628 10.6642C6.14095 9.97875 5.79828 9.15475 5.79828 8.19225C5.79828 7.22975 6.14095 6.40583 6.82628 5.7205C7.51161 5.035 8.33553 4.69225 9.29803 4.69225C10.2605 4.69225 11.0845 5.035 11.77 5.7205C12.4554 6.40583 12.798 7.22975 12.798 8.19225C12.798 9.15475 12.4554 9.97875 11.77 10.6642C11.0845 11.3496 10.2605 11.6922 9.29803 11.6922ZM17.9325 8.19225C17.9325 9.15475 17.5899 9.97875 16.9045 10.6642C16.2192 11.3496 15.3953 11.6922 14.4328 11.6922C14.3199 11.6922 14.1764 11.6794 14.002 11.6537C13.8275 11.6281 13.6839 11.5999 13.5713 11.5692C13.9656 11.0951 14.2687 10.5691 14.4805 9.99125C14.6922 9.41342 14.798 8.81342 14.798 8.19125C14.798 7.56892 14.69 6.97117 14.474 6.398C14.258 5.825 13.9571 5.2975 13.5713 4.8155C13.7148 4.76417 13.8584 4.73083 14.002 4.7155C14.1455 4.7 14.2891 4.69225 14.4328 4.69225C15.3953 4.69225 16.2192 5.035 16.9045 5.7205C17.5899 6.40583 17.9325 7.22975 17.9325 8.19225ZM3.29803 17.8077H15.298V17.0845C15.298 16.8757 15.2458 16.6898 15.1413 16.527C15.0369 16.3642 14.8713 16.2218 14.6443 16.1C13.8213 15.6757 12.9739 15.3542 12.102 15.1355C11.2302 14.917 10.2955 14.8077 9.29803 14.8077C8.3007 14.8077 7.36611 14.917 6.49428 15.1355C5.62245 15.3542 4.77503 15.6757 3.95203 16.1C3.72503 16.2218 3.55928 16.3642 3.45478 16.527C3.35028 16.6898 3.29803 16.8757 3.29803 17.0845V17.8077ZM9.29803 10.1922C9.84803 10.1922 10.3189 9.99642 10.7105 9.60475C11.1022 9.21308 11.298 8.74225 11.298 8.19225C11.298 7.64225 11.1022 7.17142 10.7105 6.77975C10.3189 6.38808 9.84803 6.19225 9.29803 6.19225C8.74803 6.19225 8.2772 6.38808 7.88553 6.77975C7.49386 7.17142 7.29803 7.64225 7.29803 8.19225C7.29803 8.74225 7.49386 9.21308 7.88553 9.60475C8.2772 9.99642 8.74803 10.1922 9.29803 10.1922Z" fill="#08138C"/>
</svg>
