<svg width="24" height="24" viewBox="0 0 24 24" fill="none" xmlns="http://www.w3.org/2000/svg">
<g opacity="0.5">
<path fill-rule="evenodd" clip-rule="evenodd" d="M4.64834 1.06478C2.94787 1.42805 1.5644 2.82515 1.13902 4.60865C0.746925 6.25253 1.19728 7.99381 2.32512 9.1951C2.89675 9.80396 3.60438 10.2313 4.46218 10.4857C4.78166 10.5805 4.90122 10.5864 6.80874 10.6021L8.81867 10.6187V12.5618V14.5048L8.61446 14.3379C7.66319 13.5605 6.26724 13.7931 5.63533 14.8345C5.23997 15.4861 5.2453 16.2991 5.64926 16.949C5.74505 17.1031 6.25095 17.5868 7.29242 18.52L8.79718 19.8683L8.81867 21.2134C8.83909 22.4902 8.84477 22.565 8.93067 22.6876C8.98041 22.7587 9.08682 22.858 9.16713 22.9084C9.3103 22.9983 9.3904 23 13.333 23C17.2755 23 17.3556 22.9983 17.4988 22.9084C17.5791 22.858 17.6855 22.7587 17.7352 22.6876C17.8254 22.5588 17.8258 22.5432 17.8385 18.5204C17.8477 15.6368 17.8373 14.4045 17.8023 14.2096C17.7103 13.6965 17.4029 13.1914 17.0055 12.9002C16.6423 12.634 16.4682 12.5938 14.6326 12.3521C13.6695 12.2252 12.838 12.1114 12.7848 12.099C12.6894 12.0769 12.6881 12.0665 12.6881 11.3467V10.6168L15.9448 10.6021L19.2015 10.5874L19.5658 10.4799C21.7206 9.84376 23.1164 7.82731 22.9924 5.53001C22.9267 4.31466 22.4769 3.25694 21.6574 2.39081C20.9727 1.66719 20.2386 1.24703 19.343 1.06606C19.0431 1.00543 18.0892 0.997004 11.9632 1.00076C6.36467 1.00419 4.8707 1.01724 4.64834 1.06478ZM19.2757 2.45863C20.3959 2.76374 21.3058 3.72641 21.6161 4.93465C21.7345 5.39547 21.7233 6.27401 21.5935 6.72058C21.2252 7.98758 20.2959 8.90935 19.128 9.1663C18.8432 9.22899 18.3681 9.2392 15.7424 9.2392H12.6881V8.14639C12.6881 7.54541 12.6686 6.94263 12.6448 6.80695C12.5373 6.193 12.1271 5.63762 11.5717 5.35389C11.2919 5.21088 11.2005 5.18752 10.8578 5.17159C9.88692 5.12634 9.12496 5.71625 8.88458 6.69929C8.83394 6.90636 8.81867 7.23182 8.81867 8.10399V9.2392H7.01115C5.52561 9.2392 5.14461 9.22619 4.87233 9.1663C4.21381 9.02145 3.65206 8.68327 3.17488 8.14452C2.82784 7.75262 2.61713 7.37579 2.44404 6.83731C2.32254 6.45929 2.31067 6.37068 2.30899 5.82762C2.30689 5.16142 2.36549 4.86084 2.6035 4.31645C2.98846 3.43589 3.80769 2.71186 4.70122 2.46252C5.00221 2.37853 5.27187 2.37519 11.9825 2.37276C18.7303 2.37034 18.9616 2.37304 19.2757 2.45863ZM18.1697 3.79661C18.1224 3.82394 17.5856 4.37433 16.9768 5.0196L15.87 6.19286L15.4076 5.70613C15.1533 5.43842 14.9029 5.19655 14.8513 5.16861C14.7023 5.08802 14.4017 5.10816 14.2462 5.20918C13.9789 5.38269 13.8716 5.70938 13.98 6.01926C14.0315 6.16685 15.4016 7.65481 15.5772 7.75404C15.726 7.83807 16.0128 7.83816 16.1619 7.75418C16.2257 7.71823 16.9 7.02272 17.6602 6.20866C19.1226 4.64268 19.1374 4.62253 19.0755 4.27171C19.0427 4.08542 18.9123 3.90211 18.7484 3.81181C18.6052 3.73295 18.2938 3.72476 18.1697 3.79661ZM11.0842 6.62698C11.3924 6.82714 11.3744 6.63596 11.3983 9.95503C11.4195 12.9019 11.421 12.9435 11.5103 13.0711C11.6971 13.3379 11.7346 13.3467 14.0095 13.6513C16.3938 13.9705 16.3515 13.9591 16.488 14.3225C16.5485 14.4836 16.5574 14.7894 16.5574 16.7044V18.9015H13.1423H9.72707L8.2733 17.6031C7.47372 16.8889 6.7848 16.263 6.7424 16.2121C6.46738 15.8818 6.73243 15.3394 7.20824 15.2588C7.52978 15.2044 7.68133 15.289 8.36819 15.9064C9.15901 16.6173 9.21748 16.6573 9.46796 16.6575C9.71018 16.6577 9.92605 16.5175 10.0331 16.2904C10.1032 16.1419 10.1083 15.8222 10.1085 11.5975C10.1086 7.3729 10.1137 7.05318 10.1838 6.90467C10.3451 6.56278 10.7792 6.42888 11.0842 6.62698ZM16.5574 20.9622V21.6491H13.333H10.1085V20.9622V20.2753H13.333H16.5574V20.9622Z" fill="#08138C"/>
</g>
</svg>
