<svg width="24" height="24" viewBox="0 0 24 24" fill="none" xmlns="http://www.w3.org/2000/svg">
<g opacity="0.5">
<path d="M11.25 21.5C11.0375 21.5 10.8594 21.4281 10.7157 21.2842C10.5719 21.1404 10.5 20.9622 10.5 20.7497C10.5 20.5371 10.5719 20.359 10.7157 20.2155C10.8594 20.0718 11.0375 20 11.25 20H21.75C21.9625 20 22.1406 20.0719 22.2842 20.2157C22.4281 20.3596 22.5 20.5377 22.5 20.7502C22.5 20.9629 22.4281 21.141 22.2842 21.2845C22.1406 21.4282 21.9625 21.5 21.75 21.5H11.25ZM11.5 18.8077C11.5 17.5539 11.9041 16.4628 12.7125 15.5345C13.5208 14.6063 14.5333 14.0544 15.75 13.8787V13.3597C15.75 13.1532 15.8219 12.9766 15.9657 12.8297C16.1094 12.6831 16.2875 12.6097 16.5 12.6097C16.7063 12.6097 16.8829 12.6831 17.0297 12.8297C17.1766 12.9766 17.25 13.1532 17.25 13.3597V13.8787C18.4563 14.0544 19.4662 14.6063 20.2797 15.5345C21.0932 16.4628 21.5 17.5539 21.5 18.8077H11.5ZM13.4135 17.2922H19.5462C19.2872 16.7012 18.8862 16.2186 18.3432 15.8442C17.8002 15.4699 17.1858 15.2827 16.5 15.2827C15.8038 15.2827 15.1801 15.4699 14.6287 15.8442C14.0776 16.2186 13.6725 16.7012 13.4135 17.2922ZM1.51923 10.9422V4.404C1.51923 3.98216 1.66698 3.6235 1.96248 3.328C2.25798 3.0325 2.61664 2.88475 3.03848 2.88475H4.99998C5.32948 2.88475 5.64456 2.99917 5.94523 3.228C6.24573 3.45683 6.43706 3.736 6.51923 4.0655V4.25775L13.3 2.3135C13.4641 2.27 13.6381 2.24658 13.822 2.24325C14.006 2.24008 14.1801 2.26866 14.3442 2.329L20.7902 4.34225C20.9564 4.39408 21.0874 4.488 21.1832 4.624C21.2789 4.76017 21.3267 4.91242 21.3267 5.08075V5.25C21.3267 5.968 21.064 6.57375 20.5385 7.06725C20.0128 7.56092 19.3846 7.80775 18.6537 7.80775H16.3845V8.35C16.3845 8.73467 16.2685 9.08017 16.0365 9.3865C15.8045 9.69283 15.5064 9.91783 15.1422 10.0615L8.99223 12.346C8.88839 12.3793 8.78556 12.4069 8.68373 12.4287C8.58173 12.4506 8.47364 12.4615 8.35948 12.4615H3.03848C2.61664 12.4615 2.25798 12.3137 1.96248 12.0182C1.66698 11.7227 1.51923 11.3641 1.51923 10.9422ZM3.01923 7.673V10.9615H5.01923V4.38475H3.01923V7.673ZM6.51923 8.38475V10.9615H8.42698L14.323 8.798C14.4946 8.7365 14.6311 8.63267 14.7325 8.4865C14.8338 8.34033 14.8845 8.175 14.8845 7.9905V7.80775H13.0327L10.8172 8.54425C10.6211 8.60825 10.431 8.59225 10.247 8.49625C10.0631 8.40008 9.93914 8.24875 9.87498 8.04225C9.81081 7.83975 9.82289 7.649 9.91123 7.47C9.99939 7.29117 10.1444 7.16975 10.3462 7.10575L12.7577 6.30775H18.6537C18.8422 6.30775 19.065 6.24558 19.322 6.12125C19.5791 5.99691 19.7206 5.82442 19.7462 5.60375L13.777 3.75375L6.51923 5.80775V8.38475Z" fill="#08138C"/>
</g>
</svg>
