<svg width="24" height="24" viewBox="0 0 24 24" fill="none" xmlns="http://www.w3.org/2000/svg">
<path d="M12 6.279C12.6885 5.393 13.5029 4.70833 14.4432 4.225C15.3836 3.74167 16.3692 3.5 17.4 3.5C19.0945 3.5 20.5347 4.09308 21.7208 5.27925C22.9069 6.46525 23.5 7.9055 23.5 9.6C23.5 10.0232 23.4535 10.4408 23.3605 10.853C23.2675 11.2652 23.1409 11.6661 22.9807 12.0558C22.9102 12.2686 22.7839 12.4327 22.6018 12.548C22.4198 12.6635 22.2234 12.6885 22.0128 12.623C21.8144 12.5705 21.6637 12.4564 21.5605 12.2808C21.4573 12.1051 21.441 11.9192 21.5115 11.7233C21.6615 11.3872 21.7804 11.0423 21.8682 10.6885C21.9561 10.3347 22 9.97183 22 9.6C22 8.31667 21.5542 7.22917 20.6625 6.3375C19.7708 5.44583 18.6833 5 17.4 5C16.4638 5 15.6128 5.26375 14.847 5.79125C14.081 6.31892 13.3916 6.94233 12.7788 7.6615C12.5711 7.91283 12.3115 8.0385 12 8.0385C11.6885 8.0385 11.4289 7.91283 11.2213 7.6615C10.6186 6.94233 9.93108 6.31892 9.15875 5.79125C8.38642 5.26375 7.5335 5 6.6 5C5.31667 5 4.22917 5.44583 3.3375 6.3375C2.44583 7.22917 2 8.31667 2 9.6C2 9.97017 2.04233 10.3342 2.127 10.692C2.2115 11.05 2.32875 11.3969 2.47875 11.7327C2.53275 11.9186 2.51133 12.0968 2.4145 12.2673C2.31767 12.4377 2.17583 12.5507 1.989 12.606C1.77717 12.6752 1.58183 12.6556 1.403 12.5473C1.22417 12.4389 1.09625 12.2783 1.01925 12.0655C0.859083 11.6757 0.7325 11.2737 0.6395 10.8595C0.5465 10.4453 0.5 10.0255 0.5 9.6C0.5 7.9055 1.09308 6.46525 2.27925 5.27925C3.46525 4.09308 4.9055 3.5 6.6 3.5C7.63083 3.5 8.61642 3.74167 9.55675 4.225C10.4971 4.70833 11.3115 5.393 12 6.279ZM1.3655 21.5193C1.12033 21.5193 0.91475 21.4363 0.74875 21.2705C0.582917 21.1045 0.5 20.8989 0.5 20.6538V20.3C0.5 19.8218 0.6805 19.4023 1.0415 19.0413C1.40233 18.6804 1.89367 18.4115 2.5155 18.2345C2.9295 18.1077 3.3035 18.0375 3.6375 18.024C3.9715 18.0105 4.33208 18.0204 4.71925 18.0538C4.87242 18.0688 4.9835 18.1395 5.0525 18.266C5.12133 18.3925 5.12883 18.5243 5.075 18.6615C4.984 18.8897 4.91667 19.1237 4.873 19.3635C4.8295 19.6032 4.80775 19.8506 4.80775 20.1057V20.6152C4.80775 20.8714 4.72108 21.0861 4.54775 21.2593C4.37458 21.4326 4.16 21.5193 3.904 21.5193H1.3655ZM6.5 20.6152V20.1443C6.5 19.1891 7.00825 18.4231 8.02475 17.8462C9.04125 17.2692 10.3672 16.9808 12.0027 16.9808C13.6534 16.9808 14.9823 17.2692 15.9895 17.8462C16.9965 18.4231 17.5 19.1891 17.5 20.1443V20.6152C17.5 20.8714 17.4133 21.0861 17.24 21.2593C17.0668 21.4326 16.8522 21.5193 16.596 21.5193H7.40775C7.14742 21.5193 6.93108 21.4326 6.75875 21.2593C6.58625 21.0861 6.5 20.8714 6.5 20.6152ZM20.096 21.5193C19.84 21.5193 19.6254 21.4326 19.4523 21.2593C19.2789 21.0861 19.1923 20.8714 19.1923 20.6152V20.1057C19.1923 19.8506 19.1705 19.6032 19.127 19.3635C19.0833 19.1237 19.016 18.8897 18.925 18.6615C18.8712 18.5243 18.8787 18.3925 18.9475 18.266C19.0165 18.1395 19.1276 18.0688 19.2808 18.0538C19.6679 18.0204 20.0285 18.0105 20.3625 18.024C20.6965 18.0375 21.0705 18.1077 21.4845 18.2345C22.1063 18.4115 22.5977 18.6804 22.9585 19.0413C23.3195 19.4023 23.5 19.8218 23.5 20.3V20.6538C23.5 20.8989 23.4171 21.1045 23.2512 21.2705C23.0853 21.4363 22.8797 21.5193 22.6345 21.5193H20.096ZM11.9988 18.4808C10.9598 18.4808 10.0669 18.6186 9.32025 18.8943C8.57342 19.1699 8.159 19.5097 8.077 19.9135V20.0193H15.9385V19.9135C15.8462 19.5097 15.4307 19.1699 14.6923 18.8943C13.9539 18.6186 13.0561 18.4808 11.9988 18.4808ZM4.25975 17.048C3.78908 17.048 3.38617 16.8804 3.051 16.5452C2.71567 16.2101 2.548 15.8072 2.548 15.3365C2.548 14.8597 2.71567 14.4568 3.051 14.128C3.38617 13.7992 3.78908 13.6348 4.25975 13.6348C4.73658 13.6348 5.141 13.7992 5.473 14.128C5.80517 14.4568 5.97125 14.8597 5.97125 15.3365C5.97125 15.8072 5.80517 16.2101 5.473 16.5452C5.141 16.8804 4.73658 17.048 4.25975 17.048ZM19.75 17.048C19.2833 17.048 18.8814 16.8804 18.5443 16.5452C18.2071 16.2101 18.0385 15.8072 18.0385 15.3365C18.0385 14.8597 18.2071 14.4568 18.5443 14.128C18.8814 13.7992 19.2839 13.6348 19.7518 13.6348C20.2339 13.6348 20.6394 13.7992 20.9683 14.128C21.2971 14.4568 21.4615 14.8597 21.4615 15.3365C21.4615 15.8072 21.2975 16.2101 20.9695 16.5452C20.6415 16.8804 20.235 17.048 19.75 17.048ZM12.0035 16.2308C11.2832 16.2308 10.6698 15.9783 10.1635 15.4735C9.65717 14.9688 9.404 14.3559 9.404 13.6348C9.404 12.8991 9.65633 12.2825 10.161 11.785C10.6658 11.2873 11.2788 11.0385 12 11.0385C12.7355 11.0385 13.3521 11.287 13.8497 11.784C14.3472 12.2808 14.596 12.8966 14.596 13.6313C14.596 14.3514 14.3476 14.9648 13.8508 15.4713C13.3538 15.9776 12.738 16.2308 12.0035 16.2308ZM12 12.5385C11.6975 12.5385 11.4392 12.6436 11.225 12.8538C11.0108 13.0638 10.9038 13.3241 10.9038 13.6348C10.9038 13.9373 11.0108 14.1956 11.225 14.4098C11.4392 14.6238 11.6991 14.7308 12.0048 14.7308C12.3106 14.7308 12.5689 14.6238 12.7797 14.4098C12.9908 14.1956 13.0962 13.9356 13.0962 13.6298C13.0962 13.3241 12.9912 13.0658 12.781 12.8548C12.5708 12.6439 12.3105 12.5385 12 12.5385Z" fill="#08138C"/>
</svg>
