<svg width="24" height="14" viewBox="0 0 24 14" fill="none" xmlns="http://www.w3.org/2000/svg">
<path d="M4.0426 13.2882C3.20663 13.2882 2.43304 13.126 1.72185 12.8016C1.02313 12.4772 0.449178 12.0093 0 11.3979L1.38496 9.73218C1.7468 10.2313 2.13983 10.6056 2.56405 10.8551C3.00076 11.1047 3.47489 11.2294 3.98645 11.2294C5.34646 11.2294 6.02646 10.4247 6.02646 8.81511V2.04001H1.36625V0H8.45951V8.6841C8.45951 10.2313 8.07896 11.3854 7.31785 12.1465C6.56922 12.9076 5.47747 13.2882 4.0426 13.2882Z" fill="white"/>
<path d="M11.1236 13.101V0H16.8506C18.273 0 19.5207 0.274498 20.5937 0.823493C21.6668 1.37249 22.5027 2.13359 23.1016 3.10681C23.7005 4.08003 24 5.22793 24 6.55051C24 7.86061 23.7005 9.0085 23.1016 9.9942C22.5027 10.9674 21.6668 11.7285 20.5937 12.2775C19.5207 12.8265 18.273 13.101 16.8506 13.101H11.1236ZM13.5566 11.0423H16.7383C17.724 11.0423 18.5724 10.8551 19.2836 10.4808C20.0073 10.1065 20.5625 9.58245 20.9493 8.90869C21.3486 8.23492 21.5482 7.44886 21.5482 6.55051C21.5482 5.63967 21.3486 4.85361 20.9493 4.19232C20.5625 3.51856 20.0073 2.99452 19.2836 2.6202C18.5724 2.24589 17.724 2.05873 16.7383 2.05873H13.5566V11.0423Z" fill="white"/>
</svg>
