<svg width="9" height="6" viewBox="0 0 9 6" fill="none" xmlns="http://www.w3.org/2000/svg">
<path d="M4.56436 5.64492C4.4644 5.64492 4.37134 5.62688 4.2852 5.59078C4.19906 5.55469 4.11713 5.49281 4.03943 5.40516L0.310929 1.1918C0.196166 1.06195 0.137402 0.898751 0.134636 0.702188C0.132009 0.505782 0.190774 0.339609 0.310929 0.203672C0.431224 0.0678907 0.576959 0 0.748136 0C0.919313 0 1.06505 0.0678907 1.18534 0.203672L4.56436 4.02234L7.94338 0.203672C8.05829 0.0739844 8.20271 0.00757818 8.37665 0.00445318C8.55046 0.00148443 8.6975 0.0678907 8.8178 0.203672C8.93795 0.339609 8.99803 0.504297 8.99803 0.697735C8.99803 0.891172 8.93795 1.05586 8.8178 1.1918L5.0893 5.40516C5.0116 5.49281 4.92967 5.55469 4.84353 5.59078C4.75739 5.62688 4.66433 5.64492 4.56436 5.64492Z" fill="#08138C"/>
</svg>
