<svg width="390" height="380" viewBox="0 0 390 380" fill="none" xmlns="http://www.w3.org/2000/svg">
<path d="M0.90625 95L5.52335 110.883C10.1674 126.172 19.5366 158.828 28.7168 182.133C37.924 206.328 47.0772 221.172 56.5274 190C65.7076 158.828 74.8878 78.6719 84.338 79.1172C93.4912 78.6719 102.698 158.828 111.879 182.133C121.248 206.328 130.509 173.672 139.689 190C149.031 206.328 158.32 268.672 167.5 245.367C176.788 221.172 186.13 111.328 195.31 118.75C204.572 126.172 213.941 184.103 223.121 246.892C232.328 310.275 241.481 310.275 250.932 270.642C261.395 232.706 266.504 217.867 277.756 196.972C289.625 177.798 297.103 206.328 306.283 174.117C315.652 142.5 324.913 47.5 334.093 31.6172C343.436 16.3281 352.724 78.6719 361.904 87.1328C371.192 95 380.534 47.5 385.124 23.75L389.715 0V380H385.097C380.453 380 371.084 380 361.904 380C352.697 380 343.544 380 334.093 380C324.913 380 315.733 380 306.283 380C297.13 380 287.922 380 278.742 380C269.373 380 260.112 380 250.932 380C241.589 380 232.301 380 223.121 380C213.833 380 204.491 380 195.31 380C186.049 380 176.68 380 167.5 380C158.293 380 149.139 380 139.689 380C130.509 380 121.329 380 111.879 380C102.725 380 93.5182 380 84.338 380C74.9688 380 65.7076 380 56.5274 380C47.1852 380 37.897 380 28.7168 380C19.4286 380 10.0864 380 5.49635 380H0.90625V95Z" fill="url(#paint0_linear_1_355)"/>
<defs>
<linearGradient id="paint0_linear_1_355" x1="-3.16997" y1="18.3871" x2="389.717" y2="18.0983" gradientUnits="userSpaceOnUse">
<stop stop-color="#5EC3FF" stop-opacity="0.04"/>
<stop offset="1" stop-color="#FD5DEF" stop-opacity="0.04"/>
</linearGradient>
</defs>
</svg>
