<svg width="10" height="6" viewBox="0 0 10 6" fill="none" xmlns="http://www.w3.org/2000/svg">
<path d="M4.61853 5.64492C4.51856 5.64492 4.42551 5.62688 4.33937 5.59078C4.25323 5.55469 4.1713 5.49281 4.09359 5.40516L0.365098 1.1918C0.250335 1.06195 0.19157 0.898751 0.188805 0.702188C0.186178 0.505782 0.244942 0.339609 0.365098 0.203672C0.485392 0.0678907 0.631128 0 0.802305 0C0.973482 0 1.11922 0.0678907 1.23951 0.203672L4.61853 4.02234L7.99755 0.203672C8.11245 0.0739844 8.25688 0.00757818 8.43082 0.00445318C8.60462 0.00148443 8.75167 0.0678907 8.87197 0.203672C8.99212 0.339609 9.0522 0.504297 9.0522 0.697735C9.0522 0.891172 8.99212 1.05586 8.87197 1.1918L5.14347 5.40516C5.06576 5.49281 4.98384 5.55469 4.8977 5.59078C4.81156 5.62688 4.7185 5.64492 4.61853 5.64492Z" fill="#08138C"/>
</svg>
