<svg width="390" height="380" viewBox="0 0 390 380" fill="none" xmlns="http://www.w3.org/2000/svg">
<path d="M0.849976 95L5.46707 110.883C10.1112 126.172 19.4804 158.828 28.6606 182.133C37.8678 206.328 47.021 221.172 56.4712 190C65.6514 158.828 74.8316 78.6719 84.2818 79.1172C93.435 78.6719 102.642 158.828 111.822 182.133C121.192 206.328 130.453 173.672 139.633 190C148.975 206.328 158.263 268.672 167.444 245.367C176.732 221.172 186.074 111.328 195.254 118.75C204.515 126.172 213.885 184.103 223.065 246.892C232.272 310.275 241.425 310.275 250.875 270.642C261.339 232.706 266.447 217.867 277.699 196.972C289.569 177.798 297.046 206.328 306.227 174.117C315.596 142.5 324.857 47.5 334.037 31.6172C343.379 16.3281 352.668 78.6719 361.848 87.1328C371.136 95 380.478 47.5 385.068 23.75L389.658 0V380H385.041C380.397 380 371.028 380 361.848 380C352.641 380 343.487 380 334.037 380C324.857 380 315.677 380 306.227 380C297.073 380 287.866 380 278.686 380C269.317 380 260.056 380 250.875 380C241.533 380 232.245 380 223.065 380C213.777 380 204.434 380 195.254 380C185.993 380 176.624 380 167.444 380C158.236 380 149.083 380 139.633 380C130.453 380 121.273 380 111.822 380C102.669 380 93.462 380 84.2818 380C74.9126 380 65.6514 380 56.4712 380C47.129 380 37.8408 380 28.6606 380C19.3724 380 10.0302 380 5.44007 380H0.849976V95Z" fill="url(#paint0_linear_1_38)"/>
<defs>
<linearGradient id="paint0_linear_1_38" x1="-3.22624" y1="18.3871" x2="389.66" y2="18.0983" gradientUnits="userSpaceOnUse">
<stop stop-color="#5EC3FF" stop-opacity="0.04"/>
<stop offset="1" stop-color="#FD5DEF" stop-opacity="0.04"/>
</linearGradient>
</defs>
</svg>
